<svg width="113" height="46" viewBox="0 0 113 46" fill="none" xmlns="http://www.w3.org/2000/svg">
<rect width="113" height="46" fill="#001429"/>
<path d="M97.1342 17.345H100.179C100.207 17.345 100.221 17.345 100.221 17.345C100.221 17.345 100.221 17.3588 100.221 17.3865V20.4145C100.221 20.4421 100.221 20.4559 100.221 20.4559C100.221 20.4559 100.207 20.4559 100.179 20.4559H97.1342C97.1064 20.4559 97.0925 20.4559 97.0925 20.4559C97.0925 20.4559 97.0925 20.4421 97.0925 20.4145V17.3865C97.0925 17.3588 97.0925 17.345 97.0925 17.345C97.0925 17.345 97.1064 17.345 97.1342 17.345ZM101.306 17.345H104.351C104.379 17.345 104.393 17.345 104.393 17.345C104.393 17.345 104.393 17.3588 104.393 17.3865V20.4145C104.393 20.4421 104.393 20.4559 104.393 20.4559C104.393 20.4559 104.379 20.4559 104.351 20.4559H101.306C101.278 20.4559 101.264 20.4559 101.264 20.4559C101.264 20.4559 101.264 20.4421 101.264 20.4145V17.3865C101.264 17.3588 101.264 17.345 101.264 17.345C101.264 17.345 101.278 17.345 101.306 17.345ZM101.306 21.4929H104.351C104.379 21.4929 104.393 21.4929 104.393 21.4929C104.393 21.4929 104.393 21.5068 104.393 21.5344V24.5624C104.393 24.59 104.393 24.6039 104.393 24.6039C104.393 24.6039 104.379 24.6039 104.351 24.6039H101.306C101.278 24.6039 101.264 24.6039 101.264 24.6039C101.264 24.6039 101.264 24.59 101.264 24.5624V21.5344C101.264 21.5068 101.264 21.4929 101.264 21.4929C101.264 21.4929 101.278 21.4929 101.306 21.4929ZM101.306 25.6408H104.351C104.379 25.6408 104.393 25.6408 104.393 25.6408C104.393 25.6408 104.393 25.6547 104.393 25.6823V28.7103C104.393 28.738 104.393 28.7518 104.393 28.7518C104.393 28.7518 104.379 28.7518 104.351 28.7518H101.306C101.278 28.7518 101.264 28.7518 101.264 28.7518C101.264 28.7518 101.264 28.738 101.264 28.7103V25.6823C101.264 25.6547 101.264 25.6408 101.264 25.6408C101.264 25.6408 101.278 25.6408 101.306 25.6408ZM101.306 29.7888H104.351C104.379 29.7888 104.393 29.7888 104.393 29.7888C104.393 29.7888 104.393 29.8026 104.393 29.8302V32.8582C104.393 32.8859 104.393 32.8997 104.393 32.8997C104.393 32.8997 104.379 32.8997 104.351 32.8997H101.306C101.278 32.8997 101.264 32.8997 101.264 32.8997C101.264 32.8997 101.264 32.8859 101.264 32.8582V29.8302C101.264 29.8026 101.264 29.7888 101.264 29.7888C101.264 29.7888 101.278 29.7888 101.306 29.7888ZM97.1342 33.9367H100.179C100.207 33.9367 100.221 33.9367 100.221 33.9367C100.221 33.9367 100.221 33.9505 100.221 33.9782V37.0061C100.221 37.0338 100.221 37.0476 100.221 37.0476C100.221 37.0476 100.207 37.0476 100.179 37.0476H97.1342C97.1064 37.0476 97.0925 37.0476 97.0925 37.0476C97.0925 37.0476 97.0925 37.0338 97.0925 37.0061V33.9782C97.0925 33.9505 97.0925 33.9367 97.0925 33.9367C97.0925 33.9367 97.1064 33.9367 97.1342 33.9367ZM101.306 33.9367H104.351C104.379 33.9367 104.393 33.9367 104.393 33.9367C104.393 33.9367 104.393 33.9505 104.393 33.9782V37.0061C104.393 37.0338 104.393 37.0476 104.393 37.0476C104.393 37.0476 104.379 37.0476 104.351 37.0476H101.306C101.278 37.0476 101.264 37.0476 101.264 37.0476C101.264 37.0476 101.264 37.0338 101.264 37.0061V33.9782C101.264 33.9505 101.264 33.9367 101.264 33.9367C101.264 33.9367 101.278 33.9367 101.306 33.9367ZM105.477 33.9367H108.522C108.55 33.9367 108.564 33.9367 108.564 33.9367C108.564 33.9367 108.564 33.9505 108.564 33.9782V37.0061C108.564 37.0338 108.564 37.0476 108.564 37.0476C108.564 37.0476 108.55 37.0476 108.522 37.0476H105.477C105.449 37.0476 105.436 37.0476 105.436 37.0476C105.436 37.0476 105.436 37.0338 105.436 37.0061V33.9782C105.436 33.9505 105.436 33.9367 105.436 33.9367C105.436 33.9367 105.449 33.9367 105.477 33.9367Z" fill="#CDF540"/>
<path d="M104.35 9.04918H101.306H101.264V9.09065V12.1177V12.1591H101.306H104.35H104.392V12.1177V9.09065V9.04918H104.35Z" fill="#CDF540"/>
<path d="M72.9557 17.345H76.0009C76.0287 17.345 76.0426 17.345 76.0426 17.345C76.0426 17.345 76.0426 17.3588 76.0426 17.3865V20.4144C76.0426 20.4421 76.0426 20.4559 76.0426 20.4559C76.0426 20.4559 76.0287 20.4559 76.0009 20.4559H72.9557C72.9279 20.4559 72.914 20.4559 72.914 20.4559C72.914 20.4559 72.914 20.4421 72.914 20.4144V17.3865C72.914 17.3588 72.914 17.345 72.914 17.345C72.914 17.345 72.9279 17.345 72.9557 17.345ZM77.1272 17.345H80.1724C80.2002 17.345 80.2141 17.345 80.2141 17.345C80.2141 17.345 80.2141 17.3588 80.2141 17.3865V20.4144C80.2141 20.4421 80.2141 20.4559 80.2141 20.4559C80.2141 20.4559 80.2002 20.4559 80.1724 20.4559H77.1272C77.0994 20.4559 77.0855 20.4559 77.0855 20.4559C77.0855 20.4559 77.0855 20.4421 77.0855 20.4144V17.3865C77.0855 17.3588 77.0855 17.345 77.0855 17.345C77.0855 17.345 77.0994 17.345 77.1272 17.345ZM81.2987 17.345H84.3439C84.3717 17.345 84.3856 17.345 84.3856 17.345C84.3856 17.345 84.3856 17.3588 84.3856 17.3865V20.4144C84.3856 20.4421 84.3856 20.4559 84.3856 20.4559C84.3856 20.4559 84.3717 20.4559 84.3439 20.4559H81.2987C81.2709 20.4559 81.257 20.4559 81.257 20.4559C81.257 20.4559 81.257 20.4421 81.257 20.4144V17.3865C81.257 17.3588 81.257 17.345 81.257 17.345C81.257 17.345 81.2709 17.345 81.2987 17.345ZM85.4702 21.4929H88.5154C88.5432 21.4929 88.5571 21.4929 88.5571 21.4929C88.5571 21.4929 88.5571 21.5067 88.5571 21.5344V24.5624C88.5571 24.59 88.5571 24.6038 88.5571 24.6038C88.5571 24.6038 88.5432 24.6038 88.5154 24.6038H85.4702C85.4424 24.6038 85.4285 24.6038 85.4285 24.6038C85.4285 24.6038 85.4285 24.59 85.4285 24.5624V21.5344C85.4285 21.5067 85.4285 21.4929 85.4285 21.4929C85.4285 21.4929 85.4424 21.4929 85.4702 21.4929ZM72.9557 25.6408H76.0009C76.0287 25.6408 76.0426 25.6408 76.0426 25.6408C76.0426 25.6408 76.0426 25.6546 76.0426 25.6823V28.7103C76.0426 28.7379 76.0426 28.7518 76.0426 28.7518C76.0426 28.7518 76.0287 28.7518 76.0009 28.7518H72.9557C72.9279 28.7518 72.914 28.7518 72.914 28.7518C72.914 28.7518 72.914 28.7379 72.914 28.7103V25.6823C72.914 25.6546 72.914 25.6408 72.914 25.6408C72.914 25.6408 72.9279 25.6408 72.9557 25.6408ZM77.1272 25.6408H80.1724C80.2002 25.6408 80.2141 25.6408 80.2141 25.6408C80.2141 25.6408 80.2141 25.6546 80.2141 25.6823V28.7103C80.2141 28.7379 80.2141 28.7518 80.2141 28.7518C80.2141 28.7518 80.2002 28.7518 80.1724 28.7518H77.1272C77.0994 28.7518 77.0855 28.7518 77.0855 28.7518C77.0855 28.7518 77.0855 28.7379 77.0855 28.7103V25.6823C77.0855 25.6546 77.0855 25.6408 77.0855 25.6408C77.0855 25.6408 77.0994 25.6408 77.1272 25.6408ZM81.2987 25.6408H84.3439C84.3717 25.6408 84.3856 25.6408 84.3856 25.6408C84.3856 25.6408 84.3856 25.6546 84.3856 25.6823V28.7103C84.3856 28.7379 84.3856 28.7518 84.3856 28.7518C84.3856 28.7518 84.3717 28.7518 84.3439 28.7518H81.2987C81.2709 28.7518 81.257 28.7518 81.257 28.7518C81.257 28.7518 81.257 28.7379 81.257 28.7103V25.6823C81.257 25.6546 81.257 25.6408 81.257 25.6408C81.257 25.6408 81.2709 25.6408 81.2987 25.6408ZM85.4702 25.6408H88.5154C88.5432 25.6408 88.5571 25.6408 88.5571 25.6408C88.5571 25.6408 88.5571 25.6546 88.5571 25.6823V28.7103C88.5571 28.7379 88.5571 28.7518 88.5571 28.7518C88.5571 28.7518 88.5432 28.7518 88.5154 28.7518H85.4702C85.4424 28.7518 85.4285 28.7518 85.4285 28.7518C85.4285 28.7518 85.4285 28.7379 85.4285 28.7103V25.6823C85.4285 25.6546 85.4285 25.6408 85.4285 25.6408C85.4285 25.6408 85.4424 25.6408 85.4702 25.6408ZM68.7841 29.7887H71.8294C71.8572 29.7887 71.8711 29.7887 71.8711 29.7887C71.8711 29.7887 71.8711 29.8026 71.8711 29.8302V32.8582C71.8711 32.8858 71.8711 32.8997 71.8711 32.8997C71.8711 32.8997 71.8572 32.8997 71.8294 32.8997H68.7841C68.7563 32.8997 68.7424 32.8997 68.7424 32.8997C68.7424 32.8997 68.7424 32.8858 68.7424 32.8582V29.8302C68.7424 29.8026 68.7424 29.7887 68.7424 29.7887C68.7424 29.7887 68.7563 29.7887 68.7841 29.7887ZM85.4702 29.7887H88.5154C88.5432 29.7887 88.5571 29.7887 88.5571 29.7887C88.5571 29.7887 88.5571 29.8026 88.5571 29.8302V32.8582C88.5571 32.8858 88.5571 32.8997 88.5571 32.8997C88.5571 32.8997 88.5432 32.8997 88.5154 32.8997H85.4702C85.4424 32.8997 85.4285 32.8997 85.4285 32.8997C85.4285 32.8997 85.4285 32.8858 85.4285 32.8582V29.8302C85.4285 29.8026 85.4285 29.7887 85.4285 29.7887C85.4285 29.7887 85.4424 29.7887 85.4702 29.7887ZM72.9557 33.9366H76.0009C76.0287 33.9366 76.0426 33.9366 76.0426 33.9366C76.0426 33.9366 76.0426 33.9505 76.0426 33.9781V37.0061C76.0426 37.0338 76.0426 37.0476 76.0426 37.0476C76.0426 37.0476 76.0287 37.0476 76.0009 37.0476H72.9557C72.9279 37.0476 72.914 37.0476 72.914 37.0476C72.914 37.0476 72.914 37.0338 72.914 37.0061V33.9781C72.914 33.9505 72.914 33.9366 72.914 33.9366C72.914 33.9366 72.9279 33.9366 72.9557 33.9366ZM77.1272 33.9366H80.1724C80.2002 33.9366 80.2141 33.9366 80.2141 33.9366C80.2141 33.9366 80.2141 33.9505 80.2141 33.9781V37.0061C80.2141 37.0338 80.2141 37.0476 80.2141 37.0476C80.2141 37.0476 80.2002 37.0476 80.1724 37.0476H77.1272C77.0994 37.0476 77.0855 37.0476 77.0855 37.0476C77.0855 37.0476 77.0855 37.0338 77.0855 37.0061V33.9781C77.0855 33.9505 77.0855 33.9366 77.0855 33.9366C77.0855 33.9366 77.0994 33.9366 77.1272 33.9366ZM81.2987 33.9366H84.3439C84.3717 33.9366 84.3856 33.9366 84.3856 33.9366C84.3856 33.9366 84.3856 33.9505 84.3856 33.9781V37.0061C84.3856 37.0338 84.3856 37.0476 84.3856 37.0476C84.3856 37.0476 84.3717 37.0476 84.3439 37.0476H81.2987C81.2709 37.0476 81.257 37.0476 81.257 37.0476C81.257 37.0476 81.257 37.0338 81.257 37.0061V33.9781C81.257 33.9505 81.257 33.9366 81.257 33.9366C81.257 33.9366 81.2709 33.9366 81.2987 33.9366ZM85.4702 33.9366H88.5154C88.5432 33.9366 88.5571 33.9366 88.5571 33.9366C88.5571 33.9366 88.5571 33.9505 88.5571 33.9781V37.0061C88.5571 37.0338 88.5571 37.0476 88.5571 37.0476C88.5571 37.0476 88.5432 37.0476 88.5154 37.0476H85.4702C85.4424 37.0476 85.4285 37.0476 85.4285 37.0476C85.4285 37.0476 85.4285 37.0338 85.4285 37.0061V33.9781C85.4285 33.9505 85.4285 33.9366 85.4285 33.9366C85.4285 33.9366 85.4424 33.9366 85.4702 33.9366Z" fill="#CDF540"/>
<path d="M43.1161 17.345H46.1613C46.1891 17.345 46.203 17.345 46.203 17.345C46.203 17.345 46.203 17.3588 46.203 17.3865V20.4144C46.203 20.4421 46.203 20.4559 46.203 20.4559C46.203 20.4559 46.1891 20.4559 46.1613 20.4559H43.1161C43.0882 20.4559 43.0743 20.4559 43.0743 20.4559C43.0743 20.4559 43.0743 20.4421 43.0743 20.4144V17.3865C43.0743 17.3588 43.0743 17.345 43.0743 17.345C43.0743 17.345 43.0882 17.345 43.1161 17.345ZM59.8021 17.345H62.8473C62.8751 17.345 62.889 17.345 62.889 17.345C62.889 17.345 62.889 17.3588 62.889 17.3865V20.4144C62.889 20.4421 62.889 20.4559 62.889 20.4559C62.889 20.4559 62.8751 20.4559 62.8473 20.4559H59.8021C59.7743 20.4559 59.7604 20.4559 59.7604 20.4559C59.7604 20.4559 59.7604 20.4421 59.7604 20.4144V17.3865C59.7604 17.3588 59.7604 17.345 59.7604 17.345C59.7604 17.345 59.7743 17.345 59.8021 17.345ZM43.1161 21.4929H46.1613C46.1891 21.4929 46.203 21.4929 46.203 21.4929C46.203 21.4929 46.203 21.5067 46.203 21.5344V24.5624C46.203 24.59 46.203 24.6038 46.203 24.6038C46.203 24.6038 46.1891 24.6038 46.1613 24.6038H43.1161C43.0882 24.6038 43.0743 24.6038 43.0743 24.6038C43.0743 24.6038 43.0743 24.59 43.0743 24.5624V21.5344C43.0743 21.5067 43.0743 21.4929 43.0743 21.4929C43.0743 21.4929 43.0882 21.4929 43.1161 21.4929ZM59.8021 21.4929H62.8473C62.8751 21.4929 62.889 21.4929 62.889 21.4929C62.889 21.4929 62.889 21.5067 62.889 21.5344V24.5624C62.889 24.59 62.889 24.6038 62.889 24.6038C62.889 24.6038 62.8751 24.6038 62.8473 24.6038H59.8021C59.7743 24.6038 59.7604 24.6038 59.7604 24.6038C59.7604 24.6038 59.7604 24.59 59.7604 24.5624V21.5344C59.7604 21.5067 59.7604 21.4929 59.7604 21.4929C59.7604 21.4929 59.7743 21.4929 59.8021 21.4929ZM43.1161 25.6408H46.1613C46.1891 25.6408 46.203 25.6408 46.203 25.6408C46.203 25.6408 46.203 25.6546 46.203 25.6823V28.7103C46.203 28.7379 46.203 28.7518 46.203 28.7518C46.203 28.7518 46.1891 28.7518 46.1613 28.7518H43.1161C43.0882 28.7518 43.0743 28.7518 43.0743 28.7518C43.0743 28.7518 43.0743 28.7379 43.0743 28.7103V25.6823C43.0743 25.6546 43.0743 25.6408 43.0743 25.6408C43.0743 25.6408 43.0882 25.6408 43.1161 25.6408ZM59.8021 25.6408H62.8473C62.8751 25.6408 62.889 25.6408 62.889 25.6408C62.889 25.6408 62.889 25.6546 62.889 25.6823V28.7103C62.889 28.7379 62.889 28.7518 62.889 28.7518C62.889 28.7518 62.8751 28.7518 62.8473 28.7518H59.8021C59.7743 28.7518 59.7604 28.7518 59.7604 28.7518C59.7604 28.7518 59.7604 28.7379 59.7604 28.7103V25.6823C59.7604 25.6546 59.7604 25.6408 59.7604 25.6408C59.7604 25.6408 59.7743 25.6408 59.8021 25.6408ZM43.1161 29.7887H46.1613C46.1891 29.7887 46.203 29.7887 46.203 29.7887C46.203 29.7887 46.203 29.8026 46.203 29.8302V32.8582C46.203 32.8858 46.203 32.8997 46.203 32.8997C46.203 32.8997 46.1891 32.8997 46.1613 32.8997H43.1161C43.0882 32.8997 43.0743 32.8997 43.0743 32.8997C43.0743 32.8997 43.0743 32.8858 43.0743 32.8582V29.8302C43.0743 29.8026 43.0743 29.7887 43.0743 29.7887C43.0743 29.7887 43.0882 29.7887 43.1161 29.7887ZM55.6306 29.7887H58.6758C58.7036 29.7887 58.7175 29.7887 58.7175 29.7887C58.7175 29.7887 58.7175 29.8026 58.7175 29.8302V32.8582C58.7175 32.8858 58.7175 32.8997 58.7175 32.8997C58.7175 32.8997 58.7036 32.8997 58.6758 32.8997H55.6306C55.6028 32.8997 55.5889 32.8997 55.5889 32.8997C55.5889 32.8997 55.5889 32.8858 55.5889 32.8582V29.8302C55.5889 29.8026 55.5889 29.7887 55.5889 29.7887C55.5889 29.7887 55.6028 29.7887 55.6306 29.7887ZM59.8021 29.7887H62.8473C62.8751 29.7887 62.889 29.7887 62.889 29.7887C62.889 29.7887 62.889 29.8026 62.889 29.8302V32.8582C62.889 32.8858 62.889 32.8997 62.889 32.8997C62.889 32.8997 62.8751 32.8997 62.8473 32.8997H59.8021C59.7743 32.8997 59.7604 32.8997 59.7604 32.8997C59.7604 32.8997 59.7604 32.8858 59.7604 32.8582V29.8302C59.7604 29.8026 59.7604 29.7887 59.7604 29.7887C59.7604 29.7887 59.7743 29.7887 59.8021 29.7887ZM47.2876 33.9366H50.3328C50.3606 33.9366 50.3745 33.9366 50.3745 33.9366C50.3745 33.9366 50.3745 33.9505 50.3745 33.9781V37.0061C50.3745 37.0338 50.3745 37.0476 50.3745 37.0476C50.3745 37.0476 50.3606 37.0476 50.3328 37.0476H47.2876C47.2598 37.0476 47.2459 37.0476 47.2459 37.0476C47.2459 37.0476 47.2459 37.0338 47.2459 37.0061V33.9781C47.2459 33.9505 47.2459 33.9366 47.2459 33.9366C47.2459 33.9366 47.2598 33.9366 47.2876 33.9366ZM51.4591 33.9366H54.5043C54.5321 33.9366 54.546 33.9366 54.546 33.9366C54.546 33.9366 54.546 33.9505 54.546 33.9781V37.0061C54.546 37.0338 54.546 37.0476 54.546 37.0476C54.546 37.0476 54.5321 37.0476 54.5043 37.0476H51.4591C51.4313 37.0476 51.4174 37.0476 51.4174 37.0476C51.4174 37.0476 51.4174 37.0338 51.4174 37.0061V33.9781C51.4174 33.9505 51.4174 33.9366 51.4174 33.9366C51.4174 33.9366 51.4313 33.9366 51.4591 33.9366ZM59.8021 33.9366H62.8473C62.8751 33.9366 62.889 33.9366 62.889 33.9366C62.889 33.9366 62.889 33.9505 62.889 33.9781V37.0061C62.889 37.0338 62.889 37.0476 62.889 37.0476C62.889 37.0476 62.8751 37.0476 62.8473 37.0476H59.8021C59.7743 37.0476 59.7604 37.0476 59.7604 37.0476C59.7604 37.0476 59.7604 37.0338 59.7604 37.0061V33.9781C59.7604 33.9505 59.7604 33.9366 59.7604 33.9366C59.7604 33.9366 59.7743 33.9366 59.8021 33.9366Z" fill="#CDF540"/>
<path d="M24.5988 9.04918H27.644C27.6718 9.04918 27.6857 9.04918 27.6857 9.04918C27.6857 9.04918 27.6857 9.06301 27.6857 9.09066V12.1186C27.6857 12.1463 27.6857 12.1601 27.6857 12.1601C27.6857 12.1601 27.6718 12.1601 27.644 12.1601H24.5988C24.571 12.1601 24.5571 12.1601 24.5571 12.1601C24.5571 12.1601 24.5571 12.1463 24.5571 12.1186V9.09066C24.5571 9.06301 24.5571 9.04918 24.5571 9.04918C24.5571 9.04918 24.571 9.04918 24.5988 9.04918ZM28.7703 9.04918H31.8155C31.8433 9.04918 31.8572 9.04918 31.8572 9.04918C31.8572 9.04918 31.8572 9.06301 31.8572 9.09066V12.1186C31.8572 12.1463 31.8572 12.1601 31.8572 12.1601C31.8572 12.1601 31.8433 12.1601 31.8155 12.1601H28.7703C28.7425 12.1601 28.7286 12.1601 28.7286 12.1601C28.7286 12.1601 28.7286 12.1463 28.7286 12.1186V9.09066C28.7286 9.06301 28.7286 9.04918 28.7286 9.04918C28.7286 9.04918 28.7425 9.04918 28.7703 9.04918ZM28.7703 13.1971H31.8155C31.8433 13.1971 31.8572 13.1971 31.8572 13.1971C31.8572 13.1971 31.8572 13.2109 31.8572 13.2386V16.2666C31.8572 16.2942 31.8572 16.308 31.8572 16.308C31.8572 16.308 31.8433 16.308 31.8155 16.308H28.7703C28.7425 16.308 28.7286 16.308 28.7286 16.308C28.7286 16.308 28.7286 16.2942 28.7286 16.2666V13.2386C28.7286 13.2109 28.7286 13.1971 28.7286 13.1971C28.7286 13.1971 28.7425 13.1971 28.7703 13.1971ZM28.7703 17.345H31.8155C31.8433 17.345 31.8572 17.345 31.8572 17.345C31.8572 17.345 31.8572 17.3588 31.8572 17.3865V20.4145C31.8572 20.4421 31.8572 20.4559 31.8572 20.4559C31.8572 20.4559 31.8433 20.4559 31.8155 20.4559H28.7703C28.7425 20.4559 28.7286 20.4559 28.7286 20.4559C28.7286 20.4559 28.7286 20.4421 28.7286 20.4145V17.3865C28.7286 17.3588 28.7286 17.345 28.7286 17.345C28.7286 17.345 28.7425 17.345 28.7703 17.345ZM28.7703 21.4929H31.8155C31.8433 21.4929 31.8572 21.4929 31.8572 21.4929C31.8572 21.4929 31.8572 21.5068 31.8572 21.5344V24.5624C31.8572 24.59 31.8572 24.6039 31.8572 24.6039C31.8572 24.6039 31.8433 24.6039 31.8155 24.6039H28.7703C28.7425 24.6039 28.7286 24.6039 28.7286 24.6039C28.7286 24.6039 28.7286 24.59 28.7286 24.5624V21.5344C28.7286 21.5068 28.7286 21.4929 28.7286 21.4929C28.7286 21.4929 28.7425 21.4929 28.7703 21.4929ZM28.7703 25.6408H31.8155C31.8433 25.6408 31.8572 25.6408 31.8572 25.6408C31.8572 25.6408 31.8572 25.6547 31.8572 25.6823V28.7103C31.8572 28.738 31.8572 28.7518 31.8572 28.7518C31.8572 28.7518 31.8433 28.7518 31.8155 28.7518H28.7703C28.7425 28.7518 28.7286 28.7518 28.7286 28.7518C28.7286 28.7518 28.7286 28.738 28.7286 28.7103V25.6823C28.7286 25.6547 28.7286 25.6408 28.7286 25.6408C28.7286 25.6408 28.7425 25.6408 28.7703 25.6408ZM28.7703 29.7888H31.8155C31.8433 29.7888 31.8572 29.7888 31.8572 29.7888C31.8572 29.7888 31.8572 29.8026 31.8572 29.8302V32.8582C31.8572 32.8859 31.8572 32.8997 31.8572 32.8997C31.8572 32.8997 31.8433 32.8997 31.8155 32.8997H28.7703C28.7425 32.8997 28.7286 32.8997 28.7286 32.8997C28.7286 32.8997 28.7286 32.8859 28.7286 32.8582V29.8302C28.7286 29.8026 28.7286 29.7888 28.7286 29.7888C28.7286 29.7888 28.7425 29.7888 28.7703 29.7888ZM24.5988 33.9367H27.644C27.6718 33.9367 27.6857 33.9367 27.6857 33.9367C27.6857 33.9367 27.6857 33.9505 27.6857 33.9782V37.0061C27.6857 37.0338 27.6857 37.0476 27.6857 37.0476C27.6857 37.0476 27.6718 37.0476 27.644 37.0476H24.5988C24.571 37.0476 24.5571 37.0476 24.5571 37.0476C24.5571 37.0476 24.5571 37.0338 24.5571 37.0061V33.9782C24.5571 33.9505 24.5571 33.9367 24.5571 33.9367C24.5571 33.9367 24.571 33.9367 24.5988 33.9367ZM28.7703 33.9367H31.8155C31.8433 33.9367 31.8572 33.9367 31.8572 33.9367C31.8572 33.9367 31.8572 33.9505 31.8572 33.9782V37.0061C31.8572 37.0338 31.8572 37.0476 31.8572 37.0476C31.8572 37.0476 31.8433 37.0476 31.8155 37.0476H28.7703C28.7425 37.0476 28.7286 37.0476 28.7286 37.0476C28.7286 37.0476 28.7286 37.0338 28.7286 37.0061V33.9782C28.7286 33.9505 28.7286 33.9367 28.7286 33.9367C28.7286 33.9367 28.7425 33.9367 28.7703 33.9367ZM32.9418 33.9367H35.987C36.0148 33.9367 36.0287 33.9367 36.0287 33.9367C36.0287 33.9367 36.0287 33.9505 36.0287 33.9782V37.0061C36.0287 37.0338 36.0287 37.0476 36.0287 37.0476C36.0287 37.0476 36.0148 37.0476 35.987 37.0476H32.9418C32.914 37.0476 32.9001 37.0476 32.9001 37.0476C32.9001 37.0476 32.9001 37.0338 32.9001 37.0061V33.9782C32.9001 33.9505 32.9001 33.9367 32.9001 33.9367C32.9001 33.9367 32.914 33.9367 32.9418 33.9367Z" fill="#CDF540"/>
<path d="M4.59204 9.04918H7.63725C7.66506 9.04918 7.67896 9.04918 7.67896 9.04918C7.67896 9.04918 7.67896 9.06301 7.67896 9.09066V12.1186C7.67896 12.1463 7.67896 12.1601 7.67896 12.1601C7.67896 12.1601 7.66506 12.1601 7.63725 12.1601H4.59204C4.56423 12.1601 4.55032 12.1601 4.55032 12.1601C4.55032 12.1601 4.55032 12.1463 4.55032 12.1186V9.09066C4.55032 9.06301 4.55032 9.04918 4.55032 9.04918C4.55032 9.04918 4.56423 9.04918 4.59204 9.04918ZM8.76356 9.04918H11.8088C11.8366 9.04918 11.8505 9.04918 11.8505 9.04918C11.8505 9.04918 11.8505 9.06301 11.8505 9.09066V12.1186C11.8505 12.1463 11.8505 12.1601 11.8505 12.1601C11.8505 12.1601 11.8366 12.1601 11.8088 12.1601H8.76356C8.73575 12.1601 8.72184 12.1601 8.72184 12.1601C8.72184 12.1601 8.72184 12.1463 8.72184 12.1186V9.09066C8.72184 9.06301 8.72184 9.04918 8.72184 9.04918C8.72184 9.04918 8.73575 9.04918 8.76356 9.04918ZM8.76356 13.1971H11.8088C11.8366 13.1971 11.8505 13.1971 11.8505 13.1971C11.8505 13.1971 11.8505 13.2109 11.8505 13.2386V16.2666C11.8505 16.2942 11.8505 16.308 11.8505 16.308C11.8505 16.308 11.8366 16.308 11.8088 16.308H8.76356C8.73575 16.308 8.72184 16.308 8.72184 16.308C8.72184 16.308 8.72184 16.2942 8.72184 16.2666V13.2386C8.72184 13.2109 8.72184 13.1971 8.72184 13.1971C8.72184 13.1971 8.73575 13.1971 8.76356 13.1971ZM8.76356 17.345H11.8088C11.8366 17.345 11.8505 17.345 11.8505 17.345C11.8505 17.345 11.8505 17.3588 11.8505 17.3865V20.4145C11.8505 20.4421 11.8505 20.4559 11.8505 20.4559C11.8505 20.4559 11.8366 20.4559 11.8088 20.4559H8.76356C8.73575 20.4559 8.72184 20.4559 8.72184 20.4559C8.72184 20.4559 8.72184 20.4421 8.72184 20.4145V17.3865C8.72184 17.3588 8.72184 17.345 8.72184 17.345C8.72184 17.345 8.73575 17.345 8.76356 17.345ZM8.76356 21.4929H11.8088C11.8366 21.4929 11.8505 21.4929 11.8505 21.4929C11.8505 21.4929 11.8505 21.5068 11.8505 21.5344V24.5624C11.8505 24.59 11.8505 24.6039 11.8505 24.6039C11.8505 24.6039 11.8366 24.6039 11.8088 24.6039H8.76356C8.73575 24.6039 8.72184 24.6039 8.72184 24.6039C8.72184 24.6039 8.72184 24.59 8.72184 24.5624V21.5344C8.72184 21.5068 8.72184 21.4929 8.72184 21.4929C8.72184 21.4929 8.73575 21.4929 8.76356 21.4929ZM8.76356 25.6408H11.8088C11.8366 25.6408 11.8505 25.6408 11.8505 25.6408C11.8505 25.6408 11.8505 25.6547 11.8505 25.6823V28.7103C11.8505 28.738 11.8505 28.7518 11.8505 28.7518C11.8505 28.7518 11.8366 28.7518 11.8088 28.7518H8.76356C8.73575 28.7518 8.72184 28.7518 8.72184 28.7518C8.72184 28.7518 8.72184 28.738 8.72184 28.7103V25.6823C8.72184 25.6547 8.72184 25.6408 8.72184 25.6408C8.72184 25.6408 8.73575 25.6408 8.76356 25.6408ZM8.76356 29.7888H11.8088C11.8366 29.7888 11.8505 29.7888 11.8505 29.7888C11.8505 29.7888 11.8505 29.8026 11.8505 29.8302V32.8582C11.8505 32.8859 11.8505 32.8997 11.8505 32.8997C11.8505 32.8997 11.8366 32.8997 11.8088 32.8997H8.76356C8.73575 32.8997 8.72184 32.8997 8.72184 32.8997C8.72184 32.8997 8.72184 32.8859 8.72184 32.8582V29.8302C8.72184 29.8026 8.72184 29.7888 8.72184 29.7888C8.72184 29.7888 8.73575 29.7888 8.76356 29.7888ZM4.59204 33.9367H7.63725C7.66506 33.9367 7.67896 33.9367 7.67896 33.9367C7.67896 33.9367 7.67896 33.9505 7.67896 33.9782V37.0061C7.67896 37.0338 7.67896 37.0476 7.67896 37.0476C7.67896 37.0476 7.66506 37.0476 7.63725 37.0476H4.59204C4.56423 37.0476 4.55032 37.0476 4.55032 37.0476C4.55032 37.0476 4.55032 37.0338 4.55032 37.0061V33.9782C4.55032 33.9505 4.55032 33.9367 4.55032 33.9367C4.55032 33.9367 4.56423 33.9367 4.59204 33.9367ZM8.76356 33.9367H11.8088C11.8366 33.9367 11.8505 33.9367 11.8505 33.9367C11.8505 33.9367 11.8505 33.9505 11.8505 33.9782V37.0061C11.8505 37.0338 11.8505 37.0476 11.8505 37.0476C11.8505 37.0476 11.8366 37.0476 11.8088 37.0476H8.76356C8.73575 37.0476 8.72184 37.0476 8.72184 37.0476C8.72184 37.0476 8.72184 37.0338 8.72184 37.0061V33.9782C8.72184 33.9505 8.72184 33.9367 8.72184 33.9367C8.72184 33.9367 8.73575 33.9367 8.76356 33.9367ZM12.9351 33.9367H15.9803C16.0081 33.9367 16.022 33.9367 16.022 33.9367C16.022 33.9367 16.022 33.9505 16.022 33.9782V37.0061C16.022 37.0338 16.022 37.0476 16.022 37.0476C16.022 37.0476 16.0081 37.0476 15.9803 37.0476H12.9351C12.9073 37.0476 12.8934 37.0476 12.8934 37.0476C12.8934 37.0476 12.8934 37.0338 12.8934 37.0061V33.9782C12.8934 33.9505 12.8934 33.9367 12.8934 33.9367C12.8934 33.9367 12.9073 33.9367 12.9351 33.9367Z" fill="#CDF540"/>
<rect x="8.7261" y="9.05144" width="3.11775" height="3.10545" fill="#FA4773"/>
<rect x="28.7335" y="9.05369" width="3.11775" height="3.10545" fill="#FA4773"/>
<rect x="43.0743" y="29.7531" width="3.11775" height="3.10545" fill="#FA4773"/>
<rect x="68.7424" y="29.7531" width="3.11775" height="3.10545" fill="#FA4773"/>
<rect x="101.274" y="17.345" width="3.11775" height="3.10545" fill="#FA4773"/>
</svg>
